<?xml version="1.0" standalone="no"?>
<!DOCTYPE svg PUBLIC "-//W3C//DTD SVG 20010904//EN"
 "http://www.w3.org/TR/2001/REC-SVG-20010904/DTD/svg10.dtd">
<svg version="1.0" xmlns="http://www.w3.org/2000/svg"
 width="885.000000pt" height="885.000000pt" viewBox="0 0 885.000000 885.000000"
 preserveAspectRatio="xMidYMid meet">
<metadata>
Created by potrace 1.14, written by Peter Selinger 2001-2017
</metadata>
<g transform="translate(0.000000,885.000000) scale(0.100000,-0.100000)"
fill="#000000" stroke="none">
<path d="M2589 5546 c-41 -17 -100 -45 -130 -63 -53 -31 -162 -132 -182 -170
-6 -10 -13 -20 -17 -23 -3 -3 -18 -30 -32 -60 -79 -166 -79 -273 -1 -328 46
-32 127 -44 203 -30 25 5 56 11 70 13 54 10 67 14 125 35 33 13 72 31 87 41
14 11 31 19 37 19 6 0 11 5 11 10 0 6 4 10 10 10 5 0 19 8 30 18 11 9 23 15
27 14 3 -2 9 0 12 5 3 5 19 16 34 26 27 18 28 17 45 -2 21 -26 68 -35 76 -15
3 8 1 14 -5 14 -6 0 -7 5 -4 10 3 6 1 10 -4 10 -6 0 -11 9 -11 19 0 11 -4 22
-8 25 -14 8 1 78 18 86 53 26 117 54 127 56 13 2 43 29 43 37 0 5 -102 -19
-130 -30 -8 -3 -26 -8 -40 -10 -13 -2 -30 -9 -37 -15 -7 -6 -13 -8 -13 -4 0 3
-12 1 -26 -5 -15 -5 -43 -12 -63 -15 -20 -3 -43 -7 -51 -11 -23 -8 -140 -32
-190 -39 -68 -9 -82 -20 -45 -35 17 -7 35 -11 40 -9 6 1 19 3 30 5 11 1 47 7
80 15 33 7 66 13 73 13 6 0 12 5 12 11 0 6 4 5 9 -3 6 -9 11 -10 15 -2 9 14
56 15 56 1 0 -23 -46 -78 -97 -115 -29 -22 -60 -46 -68 -53 -8 -7 -17 -13 -20
-12 -3 0 -34 -14 -70 -30 -176 -81 -350 -70 -367 22 -6 33 7 135 23 174 7 16
13 34 15 41 4 23 76 123 118 165 50 49 106 98 106 92 0 -2 17 7 38 20 44 27
126 66 141 66 10 0 14 12 9 27 -6 14 -36 8 -109 -21z"/>
<path d="M5977 5353 c-39 -16 -47 -30 -22 -39 19 -8 72 13 79 31 8 21 -16 24
-57 8z"/>
<path d="M3273 5350 c-14 -6 -23 -18 -23 -30 0 -19 1 -20 36 -5 20 8 38 15 39
15 2 0 5 7 9 15 6 17 -24 20 -61 5z"/>
<path d="M3482 5262 c0 -24 -11 -194 -18 -271 -6 -68 1 -81 41 -81 16 0 25 12
39 53 10 28 25 60 34 70 8 9 12 17 9 17 -9 0 26 42 80 97 56 58 70 45 68 -58
-3 -87 9 -119 42 -119 12 0 23 4 23 8 0 12 101 117 142 147 l37 27 17 -39 c34
-77 39 -86 57 -91 9 -2 17 -8 17 -13 0 -5 9 -9 19 -9 11 0 22 -3 24 -8 3 -4
20 -6 39 -5 18 1 43 2 56 2 12 1 22 5 22 10 0 5 -17 8 -37 7 -37 -3 -85 14
-108 38 -14 14 -26 43 -32 81 -8 49 -28 72 -60 70 -48 -4 -79 -22 -132 -76
-28 -29 -53 -50 -56 -48 -2 3 -7 33 -10 68 -7 86 -18 104 -61 98 -45 -6 -78
-28 -140 -93 -28 -30 -55 -54 -60 -54 -4 0 -3 5 4 12 7 7 8 17 2 29 -6 10 -6
20 -2 23 8 5 17 106 10 106 -2 0 -17 4 -35 9 -26 8 -32 7 -31 -7z"/>
<path d="M3276 5228 c-15 -8 -17 -20 -11 -86 3 -43 8 -84 10 -92 2 -8 7 -35
10 -60 7 -51 18 -65 58 -74 29 -7 36 9 18 43 -5 9 -12 39 -15 66 -7 56 -18
174 -19 192 0 16 -31 22 -51 11z"/>
<path d="M5421 5224 c-59 -18 -115 -62 -102 -78 6 -7 8 -15 5 -18 -17 -18 200
-108 239 -100 4 1 7 -2 7 -8 0 -5 6 -7 13 -4 18 6 52 -20 43 -34 -4 -7 -15
-12 -24 -12 -30 -1 -112 -59 -112 -79 0 -42 131 -46 222 -7 21 9 39 15 41 14
8 -6 57 48 57 62 0 8 -9 21 -20 28 -11 7 -20 17 -20 23 0 5 4 8 8 5 5 -3 21 1
36 9 15 8 30 14 34 13 7 -1 27 5 67 22 17 7 17 8 -5 6 -14 -2 -45 -9 -70 -16
-25 -7 -52 -15 -60 -17 -39 -10 -84 -9 -132 4 -29 8 -60 16 -69 18 -40 9 -120
35 -141 46 -32 17 -58 48 -52 64 7 18 81 37 148 39 31 0 56 5 56 9 0 5 6 5 12
0 7 -4 24 -8 38 -9 34 -3 71 -11 93 -19 9 -4 17 -3 17 3 0 37 -239 63 -329 36z
m293 -257 c21 -12 24 -16 13 -30 -26 -35 -144 -69 -158 -46 -9 15 17 49 38 49
7 0 13 4 13 8 0 4 10 8 21 9 12 1 27 7 32 12 13 13 10 14 41 -2z"/>
<path d="M5983 5229 c-21 -8 -29 -27 -23 -54 1 -5 4 -32 6 -60 3 -27 7 -61 9
-74 2 -13 7 -44 11 -68 7 -47 23 -62 60 -55 27 5 29 14 13 44 -12 23 -16 44
-24 133 -13 142 -15 148 -52 134z"/>
<path d="M4265 5222 c-12 -8 -14 -301 -3 -303 5 -1 15 -1 23 -1 30 0 35 2 35
17 0 8 5 15 12 15 6 0 9 3 5 6 -6 6 68 109 107 150 22 22 58 44 74 44 5 0 24
-29 43 -65 18 -36 37 -65 41 -65 5 0 8 -8 8 -17 0 -9 3 -13 7 -10 3 4 12 -2
19 -12 8 -10 30 -22 51 -26 21 -4 46 -14 57 -23 26 -24 98 -19 175 14 36 16
71 32 76 36 6 4 25 19 43 34 17 14 32 22 32 18 0 -4 6 1 14 11 12 16 13 13 11
-31 -2 -38 1 -52 17 -66 12 -10 25 -15 29 -12 5 3 9 1 9 -4 0 -16 131 16 175
43 37 21 75 55 63 55 -3 0 -33 -14 -68 -32 -72 -36 -136 -40 -158 -11 -16 22
-10 100 12 163 25 71 24 72 -41 66 -32 -3 -69 -8 -83 -11 -14 -3 -35 -8 -48
-11 -74 -15 -255 -143 -266 -188 -5 -19 -13 -26 -31 -26 -13 0 -27 5 -30 10
-4 6 -11 8 -16 5 -5 -4 -9 1 -9 9 0 8 -7 21 -15 30 -9 8 -15 18 -15 21 1 14
-15 63 -30 90 -17 31 -79 60 -109 50 -9 -2 -19 -5 -24 -5 -7 0 -72 -66 -119
-124 l-24 -29 2 84 c2 97 -14 128 -51 101z m840 -64 c-3 -12 -10 -25 -17 -30
-7 -4 -10 -8 -5 -8 10 0 -41 -50 -86 -83 -44 -33 -131 -74 -167 -79 -21 -2
-26 2 -28 24 -3 22 6 37 42 70 60 58 76 70 76 61 0 -4 4 -3 8 2 9 12 72 48 72
41 0 -3 12 2 28 10 15 7 39 14 54 14 22 0 26 -4 23 -22z"/>
<path d="M6142 5212 c-11 -8 -11 -10 1 -15 12 -4 13 -22 10 -90 -7 -107 6
-140 63 -167 95 -47 193 -14 259 85 49 73 51 123 7 143 -27 11 -143 39 -172
41 -8 0 -46 3 -85 6 -38 3 -76 2 -83 -3z m198 -44 c0 -5 3 -7 8 -7 56 9 113
-31 105 -74 -3 -15 -16 -38 -28 -51 -13 -14 -21 -27 -18 -29 2 -3 -6 -8 -19
-12 -13 -4 -26 -13 -30 -18 -7 -11 -92 -19 -114 -10 -32 12 -43 155 -14 173 7
4 11 10 11 14 -3 23 3 26 49 24 27 -2 50 -6 50 -10z"/>
<path d="M710 4852 c0 -5 -6 -9 -12 -10 -32 -2 -65 -15 -224 -94 -94 -47 -183
-88 -197 -92 -15 -3 -27 -11 -27 -16 0 -6 -7 -10 -15 -10 -38 0 -102 -54 -111
-94 -5 -17 -9 -34 -10 -38 -1 -5 -2 -9 -4 -10 -17 -22 -29 -265 -16 -324 4
-16 8 -39 11 -52 10 -54 133 -281 175 -322 3 -3 19 -23 35 -45 16 -22 44 -55
62 -73 18 -18 33 -37 33 -42 0 -6 4 -10 9 -10 5 0 24 -15 43 -32 51 -50 119
-105 147 -120 14 -7 28 -15 31 -18 9 -10 95 -49 131 -60 44 -13 169 -20 169
-10 0 5 14 7 30 6 17 -1 30 1 30 4 0 4 6 7 13 8 33 3 131 35 138 45 3 5 9 8
13 8 3 -1 7 -1 9 0 1 0 10 2 19 4 9 2 32 10 49 19 18 9 38 16 46 16 7 0 13 4
13 8 0 5 16 14 35 22 19 8 35 18 35 24 0 5 3 6 6 3 4 -4 19 2 34 13 16 11 33
20 39 20 6 0 11 5 11 10 0 6 6 10 13 10 6 0 26 13 43 30 18 16 35 26 38 23 3
-4 6 -1 6 5 0 6 11 23 25 38 13 14 22 30 19 35 -3 5 -1 9 4 9 6 0 10 12 10 28
3 105 0 127 -28 222 -11 36 -20 70 -22 75 -1 6 -7 21 -14 34 -7 14 -11 28 -9
32 3 4 -2 10 -11 13 -8 3 -13 10 -10 15 3 4 -7 35 -23 67 -37 77 -45 104 -32
105 14 2 30 6 34 9 1 1 9 3 17 5 8 2 51 13 95 25 44 11 91 23 105 26 14 2 37
7 52 10 15 3 29 5 30 4 2 -1 15 3 29 9 27 10 99 23 132 25 9 0 17 4 17 9 0 4
4 6 8 3 5 -3 24 -1 43 4 19 5 45 11 59 14 14 2 68 12 120 22 52 10 101 18 108
17 6 0 12 3 12 7 0 5 8 7 18 5 9 -1 24 1 32 5 8 4 33 10 55 14 22 3 51 8 65
11 14 3 50 7 80 10 30 2 55 5 55 5 0 3 84 17 148 25 23 3 53 7 67 10 14 3 52
8 85 11 64 6 100 11 100 14 0 1 23 3 50 5 28 2 50 4 50 5 0 1 18 4 40 6 56 5
120 11 185 18 87 10 192 18 232 20 21 0 38 3 38 6 0 3 28 6 63 6 34 1 105 4
157 8 201 13 427 19 730 19 262 -1 605 -8 605 -13 0 -1 32 -3 70 -5 171 -11
223 -15 265 -19 25 -3 77 -8 115 -11 39 -3 90 -8 115 -11 25 -3 68 -7 95 -9
28 -2 61 -6 75 -8 14 -3 50 -8 80 -11 31 -3 62 -7 70 -10 8 -3 40 -8 70 -11
30 -4 66 -9 80 -12 14 -2 36 -6 50 -8 14 -1 25 -4 25 -5 0 -1 14 -3 30 -5 17
-2 50 -8 74 -14 25 -5 49 -8 53 -5 4 3 8 0 8 -6 0 -6 3 -9 8 -7 6 4 123 -14
155 -24 6 -2 35 -8 66 -14 19 -3 39 -9 44 -12 9 -6 42 -12 75 -15 6 -1 12 -5
12 -9 0 -5 7 -6 15 -3 8 3 20 2 27 -2 7 -5 22 -10 33 -12 25 -4 36 -7 55 -15
8 -3 26 -8 40 -10 49 -10 146 -38 230 -68 47 -16 90 -31 95 -33 35 -9 61 -20
66 -29 4 -5 -6 -39 -22 -74 -16 -36 -27 -69 -24 -73 3 -5 1 -10 -3 -12 -26
-10 -94 -259 -95 -343 0 -33 15 -85 24 -85 5 0 9 -6 9 -13 0 -19 74 -83 145
-127 71 -42 137 -75 148 -72 4 1 7 -2 7 -8 0 -6 3 -9 8 -8 4 1 25 -7 47 -17
41 -18 49 -22 125 -50 49 -18 46 -18 140 -38 71 -15 141 -14 198 3 51 16 142
62 164 83 10 9 22 17 27 17 4 0 19 10 33 23 46 40 130 112 142 119 6 4 8 8 4
8 -4 0 3 10 15 23 42 44 75 85 112 138 20 30 40 56 43 59 15 11 115 200 107
200 -4 0 -2 6 4 13 6 8 13 24 15 38 3 13 5 24 6 24 6 0 10 54 10 140 1 91 -16
217 -37 272 -8 21 -85 84 -107 87 -6 1 -41 16 -78 34 -37 17 -72 32 -77 32 -6
0 -11 5 -11 10 0 6 -6 10 -12 10 -12 -1 -217 99 -228 110 -7 7 -55 13 -107 14
-24 1 -43 5 -43 11 0 5 -5 4 -12 -3 -7 -7 -22 -12 -35 -12 -12 0 -35 -5 -50
-11 -55 -22 -158 -74 -164 -82 -3 -4 -20 -15 -37 -25 -45 -25 -142 -102 -129
-102 3 0 -15 -21 -39 -47 -24 -26 -44 -50 -44 -55 0 -4 -6 -8 -12 -8 -7 0 -22
-13 -33 -29 -10 -16 -22 -28 -26 -25 -4 2 -10 0 -14 -5 -3 -6 -15 -7 -29 -1
-12 4 -36 11 -52 14 -16 3 -57 12 -91 20 -34 9 -75 18 -90 21 -15 3 -75 16
-133 30 -58 14 -116 27 -130 29 -14 2 -54 10 -90 16 -36 7 -74 14 -85 15 -11
2 -20 4 -20 5 0 1 -11 3 -25 4 -14 2 -36 6 -50 9 -14 4 -41 9 -60 11 -19 2
-42 7 -50 10 -8 2 -33 7 -55 10 -22 3 -52 8 -66 11 -14 3 -41 7 -60 9 -19 3
-34 5 -34 6 0 1 -20 3 -45 5 -25 3 -63 7 -85 11 -22 3 -51 7 -65 9 -14 3 -47
7 -75 10 -27 3 -66 7 -85 10 -19 2 -57 7 -85 10 -27 3 -61 7 -75 9 -87 14
-137 19 -285 31 -44 3 -96 8 -115 10 -19 2 -93 6 -165 10 -71 4 -161 9 -200
11 -38 3 -236 6 -440 8 -203 2 -374 5 -380 6 -5 1 -12 1 -15 0 -5 -3 -25 -4
-300 -14 -102 -4 -212 -9 -245 -11 -96 -6 -227 -16 -265 -20 -19 -1 -69 -6
-110 -9 -41 -3 -95 -8 -120 -11 -72 -9 -101 -12 -165 -19 -33 -4 -69 -8 -80
-11 -11 -2 -47 -7 -80 -10 -33 -4 -67 -8 -75 -10 -8 -3 -42 -7 -75 -11 -33 -3
-62 -7 -65 -9 -4 -3 -70 -12 -140 -20 -25 -3 -83 -13 -124 -21 -11 -2 -41 -7
-66 -10 -25 -3 -54 -8 -65 -10 -39 -8 -150 -26 -175 -29 -14 -2 -25 -4 -25 -5
0 -3 -65 -16 -132 -26 -24 -3 -46 -10 -48 -15 -3 -4 -12 -6 -20 -2 -8 3 -15 1
-15 -3 0 -5 -12 -9 -27 -10 -16 0 -41 -4 -58 -8 -16 -4 -40 -9 -52 -11 -11 -2
-30 -6 -42 -10 -11 -3 -33 -8 -48 -11 -16 -3 -55 -12 -88 -21 -63 -16 -71 -18
-120 -28 -28 -6 -35 -2 -77 47 -26 30 -65 74 -87 97 -23 24 -41 47 -41 52 0 5
-5 9 -11 9 -7 0 -19 8 -28 18 -30 34 -205 145 -228 145 -7 0 -13 3 -13 6 0 11
-84 32 -142 35 -31 2 -61 7 -67 10 -6 4 -11 3 -11 -2z m-234 -325 c1 -61 4
-125 8 -142 21 -97 31 -135 49 -175 11 -25 20 -48 19 -52 -1 -3 5 -12 13 -18
8 -7 15 -18 15 -24 0 -11 64 -111 84 -132 6 -6 27 -31 46 -57 19 -25 37 -47
40 -47 3 0 40 -34 83 -75 77 -73 200 -162 218 -158 5 2 9 -1 9 -6 0 -5 7 -12
16 -15 9 -4 13 -2 8 5 -3 6 5 4 18 -5 14 -9 28 -13 31 -9 4 3 7 2 7 -4 0 -6 6
-11 13 -10 62 2 77 -17 24 -31 -55 -15 -116 -6 -194 29 -24 10 -46 19 -51 19
-5 0 -18 9 -29 20 -12 11 -27 21 -34 22 -12 3 -20 10 -120 104 -81 76 -106
105 -196 230 -50 68 -135 255 -148 324 -3 19 -8 46 -11 60 -20 105 22 256 71
259 6 1 10 -44 11 -112z m7935 103 c10 -6 19 -17 19 -25 0 -8 4 -15 9 -15 25
0 38 -167 18 -245 -19 -75 -31 -115 -49 -155 -11 -25 -26 -59 -34 -75 -7 -17
-24 -47 -38 -68 -14 -21 -26 -41 -26 -46 0 -4 -8 -16 -18 -27 -10 -10 -28 -35
-42 -54 -13 -19 -35 -45 -47 -57 -13 -13 -22 -23 -20 -23 3 0 -11 -16 -30 -35
-19 -19 -40 -35 -46 -35 -6 0 -7 -3 -4 -6 9 -9 -134 -125 -145 -118 -4 3 -8 0
-8 -5 0 -12 -61 -42 -125 -62 -53 -16 -117 -19 -134 -5 -8 6 -16 10 -18 9 -7
-6 -23 -2 -23 5 0 5 22 14 50 20 27 6 67 19 87 28 21 10 40 18 43 19 17 5 70
41 70 48 0 4 4 7 10 7 9 0 34 21 116 98 20 17 39 32 43 32 4 0 14 11 21 25 7
14 20 25 28 25 9 0 12 3 9 6 -4 4 1 14 11 23 40 35 123 156 163 238 60 122 87
241 86 376 -1 59 -1 107 1 107 2 0 12 -5 23 -10z m-8097 -77 c-2 -16 -6 -46
-10 -68 -13 -82 -3 -174 28 -265 13 -36 25 -67 28 -70 3 -3 11 -17 18 -32 6
-16 18 -40 24 -55 7 -16 15 -30 18 -33 6 -6 29 -46 48 -82 7 -16 17 -28 22
-28 5 0 11 -8 15 -19 3 -10 19 -31 35 -47 16 -16 30 -35 30 -41 0 -7 3 -13 8
-13 4 0 40 -31 80 -70 40 -38 76 -70 80 -70 5 0 18 -9 31 -21 34 -32 147 -87
207 -100 60 -13 67 -24 28 -39 -20 -8 -119 -7 -119 0 0 1 -7 3 -15 5 -18 3
-117 50 -145 67 -89 57 -233 198 -300 292 -11 16 -30 41 -42 56 -12 15 -20 30
-16 34 3 3 1 6 -6 6 -7 0 -9 5 -6 10 3 6 2 10 -3 10 -5 0 -19 23 -32 50 -13
28 -27 50 -31 50 -4 0 -6 8 -5 17 2 10 -3 24 -11 31 -7 8 -11 18 -8 23 4 5 2
9 -2 9 -5 0 -10 12 -11 28 -1 15 -7 29 -12 30 -6 2 -8 7 -6 11 2 3 0 29 -5 56
-6 28 -10 76 -10 107 1 59 25 138 44 138 6 0 7 3 4 7 -5 5 38 42 49 43 1 0 0
-12 -2 -27z m8297 -40 c13 -23 20 -45 16 -49 -4 -4 -2 -12 3 -19 12 -15 19
-115 7 -115 -4 0 -6 -4 -3 -9 5 -7 -15 -99 -30 -141 -3 -8 -5 -16 -4 -18 0 -1
-7 -16 -15 -32 -9 -17 -13 -30 -9 -30 4 0 2 -6 -4 -13 -6 -7 -24 -37 -40 -67
-38 -73 -54 -100 -72 -121 -32 -37 -40 -48 -40 -54 0 -26 -241 -255 -269 -255
-8 0 -11 -3 -8 -6 4 -4 -13 -16 -36 -27 -23 -12 -44 -23 -47 -26 -3 -3 -12 -8
-20 -10 -8 -2 -37 -10 -65 -18 -56 -17 -59 -17 -100 -8 -68 13 -70 28 -8 40
21 4 43 11 48 15 6 5 14 8 18 8 17 0 73 26 96 46 13 12 20 14 15 6 -8 -15 38
18 82 58 14 12 29 22 34 22 4 0 10 3 12 8 2 4 24 26 50 50 26 23 45 42 42 42
-2 0 1 6 8 14 7 8 16 12 21 9 4 -2 7 2 7 9 0 7 14 29 30 48 16 19 34 40 40 47
6 7 15 24 22 38 6 14 15 25 20 25 4 0 8 7 8 15 0 8 5 15 12 15 6 0 8 3 5 6 -4
4 2 19 11 33 22 32 81 160 88 193 19 76 30 147 28 173 -4 43 -11 95 -19 132
-7 32 -7 32 18 20 14 -6 35 -31 48 -54z m-360 20 c1 -10 1 -22 0 -26 -1 -4 -2
-19 -3 -32 -1 -14 -5 -25 -8 -25 -3 0 -5 -12 -4 -27 1 -16 -2 -32 -6 -38 -4
-5 -11 -25 -15 -42 -3 -18 -10 -33 -14 -33 -4 0 -8 -6 -8 -13 0 -37 -118 -243
-181 -318 -113 -132 -274 -264 -371 -302 -85 -34 -92 -15 -11 29 28 15 50 31
50 36 0 5 4 7 8 4 5 -3 20 6 35 20 14 13 29 24 32 24 12 0 225 217 225 229 0
6 4 11 10 11 5 0 16 13 25 29 8 16 20 35 27 43 17 18 36 48 47 75 6 11 15 24
20 28 6 3 11 16 11 29 0 12 5 27 12 34 6 6 13 17 14 24 2 7 17 54 34 103 18
50 33 95 34 100 11 51 35 75 37 38z m-7617 -19 c9 -8 16 -23 16 -33 0 -9 5
-22 12 -29 7 -7 8 -12 4 -12 -5 0 -1 -11 8 -25 9 -14 14 -25 11 -25 -7 0 22
-75 62 -157 19 -40 39 -73 44 -73 6 0 7 -5 4 -11 -4 -5 3 -18 14 -28 12 -10
21 -25 21 -32 0 -8 9 -21 19 -29 11 -7 18 -17 15 -21 -2 -4 8 -20 23 -36 16
-16 51 -53 78 -84 28 -30 71 -71 97 -91 26 -19 45 -38 41 -42 -3 -3 1 -6 10
-6 10 0 17 -5 17 -11 0 -5 4 -8 9 -5 5 3 11 -1 15 -9 3 -8 12 -15 20 -15 8 0
16 -4 18 -9 2 -4 23 -19 48 -33 25 -13 46 -29 47 -34 3 -18 -47 -3 -100 28
-26 15 -52 28 -57 28 -4 0 -10 3 -12 8 -1 4 -23 20 -47 37 -24 16 -45 35 -48
42 -3 7 -10 13 -15 13 -11 0 -135 126 -171 173 -12 16 -31 41 -43 55 -27 35
-94 150 -94 163 0 5 -5 9 -12 9 -6 0 -9 3 -5 6 3 4 -2 23 -12 43 -11 20 -21
47 -22 61 -2 14 -7 28 -11 31 -5 3 -9 17 -10 32 -1 15 -5 27 -9 27 -3 0 -6 6
-7 13 -1 6 -3 31 -6 55 -5 45 3 52 28 26z m534 -93 c13 0 21 -5 17 -10 -3 -5
0 -13 5 -16 8 -5 7 -12 -3 -23 -24 -29 -26 -48 -6 -81 19 -32 24 -34 94 -36
22 0 40 -6 40 -12 0 -6 3 -14 7 -18 4 -4 5 -12 3 -18 -2 -7 -6 -24 -9 -38 -3
-14 -17 -31 -32 -37 -22 -11 -30 -9 -57 10 -18 12 -33 26 -35 30 -2 4 -11 8
-19 8 -9 0 -14 2 -11 5 3 3 -8 20 -23 36 -62 67 -73 210 -16 204 12 -1 32 -3
45 -4z m6583 -1 c21 0 28 -49 15 -94 -8 -25 -11 -47 -8 -50 3 -4 0 -6 -7 -6
-7 0 -9 -4 -6 -10 3 -5 1 -10 -4 -10 -6 0 -11 -6 -11 -14 0 -13 -60 -67 -109
-97 -20 -12 -31 -13 -46 -5 -29 16 -35 27 -35 69 0 30 5 39 23 46 12 5 23 5
25 1 6 -15 58 4 85 32 20 21 26 35 22 56 -2 15 -9 28 -15 30 -5 2 -10 12 -10
21 0 20 37 42 58 35 8 -2 18 -4 23 -4z"/>
<path d="M3190 4372 c0 -5 -12 -8 -27 -7 -16 1 -32 -1 -38 -4 -5 -3 -18 -7
-28 -8 -65 -10 -181 -101 -209 -163 -7 -16 -16 -30 -20 -30 -5 0 -8 -4 -8 -9
0 -5 -5 -22 -12 -38 -15 -39 -21 -113 -7 -113 5 0 8 -4 5 -9 -3 -5 2 -11 12
-15 9 -3 34 -12 55 -19 26 -10 37 -11 37 -3 0 7 3 8 8 0 12 -17 136 -7 212 18
46 14 109 58 140 97 14 18 30 37 36 45 23 25 56 110 59 152 3 39 0 47 -26 66
-32 24 -41 27 -116 32 -28 2 -56 7 -62 10 -6 4 -11 3 -11 -2z m48 -85 c48 -37
-80 -263 -153 -268 -87 -7 -109 10 -93 69 21 78 74 160 122 191 30 20 103 25
124 8z"/>
<path d="M3728 4365 c-2 -2 -19 -6 -38 -10 -19 -4 -47 -9 -62 -12 -16 -3 -28
-10 -28 -15 0 -5 -4 -7 -9 -4 -5 3 -14 -1 -21 -9 -7 -8 -16 -12 -21 -9 -5 3
-9 1 -9 -5 0 -5 -9 -13 -20 -16 -11 -3 -20 -11 -20 -16 0 -6 -11 -21 -24 -34
-14 -13 -27 -34 -31 -45 -3 -11 -11 -20 -16 -20 -5 0 -9 -9 -9 -20 0 -11 -4
-20 -8 -20 -5 0 -9 -6 -10 -12 -1 -7 -4 -35 -7 -63 -6 -48 -5 -51 27 -72 19
-13 57 -25 88 -29 30 -3 58 -8 63 -11 4 -2 7 1 7 7 0 8 6 8 20 0 11 -6 20 -7
20 -3 0 4 21 9 46 9 55 2 85 16 101 50 10 22 9 24 -5 20 -18 -5 -90 -8 -154
-7 -27 1 -38 5 -38 16 0 8 -4 15 -10 15 -12 0 -7 48 9 78 6 12 9 22 6 22 -4 0
3 13 14 29 12 16 21 32 21 36 0 12 48 53 79 69 28 15 153 16 199 1 12 -4 23
-3 23 1 7 49 1 66 -28 71 -22 4 -152 11 -155 8z"/>
<path d="M5937 4364 c-1 -1 -20 -3 -42 -5 -22 -1 -46 -7 -52 -12 -7 -5 -13 -7
-13 -3 0 4 -13 0 -30 -9 -16 -9 -30 -13 -30 -10 0 4 -6 0 -14 -7 -7 -7 -23
-20 -36 -28 -25 -17 -60 -80 -56 -102 5 -38 45 -57 136 -63 86 -6 118 -37 78
-74 -39 -37 -172 -42 -240 -9 -20 10 -39 18 -41 18 -8 0 -19 -33 -23 -67 -4
-28 -1 -33 18 -35 13 0 37 -3 53 -5 73 -8 225 -4 225 7 0 3 9 6 20 7 61 5 144
64 177 126 28 56 -8 108 -79 113 -10 1 -19 3 -20 4 -2 1 -14 3 -28 5 -96 10
-104 14 -88 51 6 13 16 20 24 17 8 -3 14 -1 14 4 0 11 143 10 213 -2 l47 -8 0
37 c0 20 -3 36 -7 37 -5 0 -17 2 -28 5 -23 5 -174 12 -178 8z"/>
<path d="M6920 4358 c-67 -11 -72 -13 -107 -31 -18 -10 -33 -15 -33 -12 0 2
-14 -10 -31 -27 -29 -31 -59 -87 -59 -112 0 -16 40 -39 75 -42 109 -10 165
-26 165 -49 0 -6 -12 -22 -26 -36 -22 -21 -36 -24 -105 -26 -60 -1 -91 3 -125
18 -25 10 -47 19 -49 19 -3 0 -14 -40 -21 -77 -3 -18 0 -23 18 -25 13 0 37 -3
53 -5 63 -8 201 -2 245 10 116 31 204 121 186 190 -8 34 -45 50 -151 63 -42 5
-77 13 -82 18 -10 10 16 39 43 50 34 14 151 13 212 -2 35 -8 44 -8 48 4 2 8 6
21 9 30 5 16 -11 37 -34 42 -33 7 -190 7 -231 0z"/>
<path d="M2012 4294 c-35 -35 -67 -64 -71 -65 -3 0 -22 -20 -41 -44 -19 -24
-45 -49 -57 -56 -13 -7 -23 -16 -23 -21 0 -5 -31 -39 -70 -76 -38 -37 -70 -70
-70 -72 0 -5 62 -3 90 2 9 2 31 15 50 29 31 23 45 26 119 26 60 1 89 -3 98
-13 8 -8 12 -14 8 -14 -4 0 0 -6 7 -13 14 -15 147 -24 149 -10 0 4 2 19 4 33
6 46 7 339 1 349 -3 5 -34 9 -68 9 l-62 -1 -64 -63z m31 -141 c-2 -27 -5 -53
-8 -60 -5 -15 -105 -14 -105 1 0 11 98 106 109 106 4 0 6 -21 4 -47z"/>
<path d="M2465 4334 c-8 -13 -23 -36 -32 -51 -29 -45 -62 -106 -74 -135 -6
-16 -14 -28 -18 -28 -4 0 -13 -18 -20 -40 -6 -22 -16 -40 -21 -40 -6 0 -10 -6
-10 -12 0 -7 -7 -25 -14 -40 l-15 -28 70 0 c47 0 75 5 84 14 8 7 11 16 8 20
-4 3 -2 6 3 6 5 0 23 25 39 55 15 30 35 55 44 56 9 0 48 2 86 3 88 3 155 15
155 27 0 6 4 8 9 4 5 -3 17 2 25 11 9 8 16 13 16 9 0 -9 45 46 59 72 20 39 14
81 -16 100 -22 15 -54 18 -195 19 l-169 2 -14 -24z m228 -49 c15 -6 18 -15 13
-37 -6 -31 -27 -58 -45 -58 -6 0 -11 -4 -11 -8 0 -5 -27 -8 -59 -8 -66 0 -66
-2 -22 84 19 37 22 39 63 37 24 -1 51 -6 61 -10z"/>
<path d="M4185 4350 c-154 -150 -372 -370 -367 -370 4 0 0 -5 -8 -11 -11 -7
-3 -9 30 -8 46 3 90 17 90 29 0 16 59 28 133 28 78 0 79 -1 89 -29 10 -30 14
-31 103 -31 63 0 65 1 65 30 -1 15 1 99 4 186 4 143 3 161 -12 171 -21 15
-114 18 -127 5z m-29 -197 c-1 -27 -4 -53 -9 -59 -4 -7 -29 -12 -57 -11 -38 0
-50 4 -50 15 0 9 3 12 7 9 3 -4 14 3 22 16 23 32 75 83 82 80 3 -1 6 -24 5
-50z"/>
<path d="M4590 4353 c-8 -2 -30 -37 -49 -76 -19 -40 -40 -79 -47 -87 -7 -8
-14 -22 -16 -30 -2 -8 -5 -17 -8 -20 -10 -9 -91 -173 -87 -176 7 -7 354 -7
366 0 7 5 16 18 20 30 8 20 6 21 -95 26 l-104 5 72 145 c39 79 71 150 71 157
0 7 5 13 11 13 6 0 4 5 -4 10 -15 10 -102 12 -130 3z"/>
<path d="M5012 4351 c-8 -4 -26 -32 -41 -62 -15 -30 -48 -93 -74 -140 -25 -48
-43 -89 -40 -93 4 -3 2 -6 -4 -6 -5 0 -18 -18 -28 -40 -10 -22 -23 -41 -29
-42 -6 -1 21 -4 59 -7 39 -3 75 -4 80 -1 6 2 13 5 18 5 4 0 7 4 7 8 -1 4 6 15
15 23 8 9 13 20 10 25 -4 5 2 9 11 9 10 0 15 3 11 6 -6 7 91 205 106 215 5 3
7 9 5 12 -1 4 5 15 14 26 9 11 13 22 10 26 -4 3 0 10 7 14 7 5 11 13 8 18 -8
13 -128 16 -145 4z"/>
<path d="M5180 4257 c-29 -56 -58 -105 -64 -109 -6 -4 -8 -8 -3 -8 4 0 -7 -28
-25 -62 -55 -106 -60 -121 -43 -114 8 3 15 2 15 -2 0 -13 123 3 128 16 2 7 9
18 15 25 7 7 13 19 15 27 2 8 9 22 16 30 7 8 16 22 19 31 3 11 17 17 39 17 18
0 35 1 38 1 3 1 37 3 77 5 39 1 78 8 86 14 7 7 17 9 20 6 3 -3 13 0 22 7 26
21 96 88 95 91 -1 2 2 11 5 21 4 9 4 33 1 51 -6 31 -11 35 -54 45 -26 5 -115
10 -198 10 l-151 0 -53 -102z m277 28 c16 -4 21 -11 18 -28 -12 -60 -36 -77
-122 -83 -40 -2 -72 15 -45 24 7 2 12 12 12 22 0 9 7 23 15 30 8 7 12 16 10
21 -14 22 47 30 112 14z"/>
<path d="M6257 4353 c-3 -2 -1 -20 5 -40 5 -19 11 -43 13 -52 2 -9 8 -36 14
-61 9 -42 7 -49 -35 -136 -24 -50 -44 -94 -44 -97 0 -4 29 -7 64 -7 53 0 67 4
90 25 15 14 24 25 21 25 -3 0 3 17 14 38 10 20 19 41 19 45 0 5 10 17 22 27
12 10 21 22 21 27 1 4 9 16 20 26 10 10 19 15 19 12 0 -3 8 3 18 13 26 25 69
57 135 104 31 23 57 44 57 48 0 5 -28 8 -62 8 -53 -1 -65 -4 -85 -26 -13 -14
-23 -22 -23 -18 0 3 -8 -2 -18 -11 -25 -24 -61 -53 -66 -53 -2 0 -9 21 -16 48
-8 26 -18 50 -23 54 -11 7 -153 8 -160 1z"/>
</g>
</svg>
